<svg xmlns="http://www.w3.org/2000/svg" viewBox="0 0 64 64" role="img" aria-label="Apple logo">
  <defs>
    <linearGradient id="g" x1="0" y1="0" x2="1" y2="1">
      <stop offset="0" stop-color="#2f3657"/>
      <stop offset="1" stop-color="#191f36"/>
    </linearGradient>
  </defs>
  <rect x="3" y="3" width="58" height="58" rx="14" fill="url(#g)"/>
  <path fill="#f8fbff" d="M42.3 34.3c-.1-5.1 4.2-7.6 4.4-7.7-2.4-3.5-6.1-4-7.4-4.1-3.1-.3-6.1 1.8-7.6 1.8-1.6 0-4.1-1.8-6.8-1.7-3.5.1-6.7 2-8.6 5-3.7 6.4-.9 15.7 2.6 20.7 1.7 2.5 3.7 5.3 6.3 5.2 2.6-.1 3.5-1.7 6.6-1.7 3 0 3.9 1.7 6.6 1.6 2.7 0 4.4-2.5 6.1-5 1.9-2.9 2.7-5.7 2.8-5.9-.1-.1-5.4-2.1-5.5-8.2z"/>
  <path fill="#f8fbff" d="M35.7 19.3c1.3-1.7 2.2-4 2-6.3-1.9.1-4.3 1.3-5.8 2.9-1.3 1.5-2.4 3.9-2.1 6.1 2.2.2 4.5-1.1 5.9-2.7z"/>
</svg>
